# xmcd CD database file
#
# Track frame offsets:
#	150
#	13430
#	27037
#	43288
#	54769
#	69600
#	85081
#	101322
#	111866
#	126285
#	139699
#	153565
#	165037
#	178841
#	194644
#	206630
#	219823
#	230183
#	243567
#	259143
#	271368
#	285279
#
# Disc length: 3949 seconds
#
# Revision: 1
# Processed by: cddbd v1.5.1PL0 Copyright (c) Steve Scherf et al.
# Submitted via: CDex 1.51
#
DISCID=3c0f6b16
DTITLE=Harry McClintock - "Haywire Mack" - The Great American Bum
DYEAR=2004
DGENRE=Country
TTITLE0=Can I Sleep in Your Barn Tonight Mister 
TTITLE1=Fireman Save My Child 
TTITLE2=Get Along Little Dogies
TTITLE3=If I Had My Druthers 
TTITLE4=The Man on the Flying Trapeze 
TTITLE5=My Dad's Dinner Pail 
TTITLE6=Trail to Mexico
TTITLE7=In the Big Rock Candy Mountains 
TTITLE8=The Trusty Lariat 
TTITLE9=Fifty Years from Now 
TTITLE10=Roamin'
TTITLE11=Hobo Spring Song 
TTITLE12=My Last Old Dollar 
TTITLE13=Old Chisholm Trail 
TTITLE14=Hallelujah I'm a Bum 
TTITLE15=The Bum Song 
TTITLE16=Homespun Gal 
TTITLE17=Bald Top Mountain
TTITLE18=Billy Venero
TTITLE19=Jerry Go Ile That Car 
TTITLE20=Circus Days 
TTITLE21=The Bum Song #2
EXTD=YEAR: 2004
EXTT0=
EXTT1=
EXTT2=
EXTT3=
EXTT4=
EXTT5=
EXTT6=
EXTT7=
EXTT8=
EXTT9=
EXTT10=
EXTT11=
EXTT12=
EXTT13=
EXTT14=
EXTT15=
EXTT16=
EXTT17=
EXTT18=
EXTT19=
EXTT20=
EXTT21=
PLAYORDER=
